<?xml version="1.0" encoding="UTF-8" standalone="no"?>
<svg
   id="Layer_1"
   data-name="Layer 1"
   viewBox="0 0 1090.24 270.04"
   version="1.1"
   sodipodi:docname="2.svg"
   inkscape:version="1.1.2 (b8e25be833, 2022-02-05)"
   xmlns:inkscape="http://www.inkscape.org/namespaces/inkscape"
   xmlns:sodipodi="http://sodipodi.sourceforge.net/DTD/sodipodi-0.dtd"
   xmlns="http://www.w3.org/2000/svg"
   xmlns:svg="http://www.w3.org/2000/svg">
  <sodipodi:namedview
     id="namedview229"
     pagecolor="#ffffff"
     bordercolor="#666666"
     borderopacity="1.0"
     inkscape:pageshadow="2"
     inkscape:pageopacity="0.0"
     inkscape:pagecheckerboard="0"
     showgrid="false"
     inkscape:zoom="1.5222149"
     inkscape:cx="694.05442"
     inkscape:cy="184.59942"
     inkscape:window-width="2560"
     inkscape:window-height="1377"
     inkscape:window-x="-2568"
     inkscape:window-y="-1"
     inkscape:window-maximized="1"
     inkscape:current-layer="Layer_1" />
  <defs
     id="defs122">
    <style
       id="style120">.cls-1,.cls-11,.cls-13,.cls-14,.cls-15,.cls-3,.cls-5,.cls-7{fill:none;}.cls-1{stroke:#999;}.cls-1,.cls-13,.cls-14,.cls-15,.cls-3,.cls-5,.cls-7{stroke-miterlimit:10;}.cls-1,.cls-13,.cls-14,.cls-15{stroke-width:2px;}.cls-2{fill:#999;}.cls-13,.cls-3{stroke:red;}.cls-3,.cls-5,.cls-7{stroke-width:1.75px;}.cls-4{fill:red;}.cls-14,.cls-5{stroke:blue;}.cls-6{fill:blue;}.cls-15,.cls-7{stroke:#009245;}.cls-8{fill:#009245;}.cls-9{fill:#ff1d25;}.cls-10{fill:#006837;}.cls-12{fill:gray;}</style>
  </defs>
  <title
     id="title124">2</title>
  <path
     class="cls-1"
     d="M190.24,106c56.65-25.49-90.39-53.17-54.82-8.26"
     transform="translate(0 -4.69)"
     id="path126" />
  <path
     class="cls-2"
     d="M143.74,106.5c-5.42-2.72-12.85-5.41-18.62-6l9.3-4,4.6-9C139.22,93.3,141.4,100.91,143.74,106.5Z"
     transform="translate(0 -4.69)"
     id="path128" />
  <line
     class="cls-3"
     x1="171.74"
     y1="21.36"
     x2="171.74"
     y2="229.8"
     id="line130" />
  <path
     class="cls-4"
     d="M171.74,15.5c-1.84,5-5,11.13-8.32,15l8.32-3,8.32,3C176.73,26.63,173.58,20.47,171.74,15.5Z"
     transform="translate(0 -4.69)"
     id="path132" />
  <line
     class="cls-5"
     x1="171.74"
     y1="229.8"
     x2="271.27"
     y2="130.27"
     id="line134" />
  <path
     class="cls-6"
     d="M278.74,127.5c-2.21,4.82-4.34,11.4-4.69,16.46l-3.76-8-8-3.76C267.34,131.84,273.92,129.71,278.74,127.5Z"
     transform="translate(0 -4.69)"
     id="path136" />
  <line
     class="cls-7"
     x1="171.74"
     y1="229.8"
     x2="16.3"
     y2="229.8"
     id="line138" />
  <path
     class="cls-8"
     d="M5.74,234.5c5-1.85,11.14-5,15-8.33l-3,8.33,3,8.32C16.88,239.49,10.71,236.34,5.74,234.5Z"
     transform="translate(0 -4.69)"
     id="path140" />
  <path
     class="cls-9"
     d="M152.22,21.07,161.55,6.6h-8.49V4.69h11.28V6L155,20.5h9.42v1.91H152.22Z"
     transform="translate(0 -4.69)"
     id="path142" />
  <path
     class="cls-6"
     d="M264.6,116.1l-4.82-8.56h2.49l2.41,4.53c.45.81.83,1.54,1.38,2.58h.11c.48-1,.82-1.77,1.25-2.58l2.35-4.53h2.38l-4.82,8.68,5.16,9H270l-2.6-4.76c-.46-.89-.95-1.77-1.51-2.85h-.11c-.52,1.08-1,2-1.41,2.85l-2.56,4.76h-2.37Z"
     transform="translate(0 -4.69)"
     id="path144" />
  <path
     class="cls-10"
     d="M5.32,218.39,0,207.54H2.41l2.28,5c.57,1.31,1.1,2.54,1.72,3.86h.11c.61-1.32,1.22-2.55,1.76-3.86l2.29-5H12.9L7.58,218.39v6.86H5.32Z"
     transform="translate(0 -4.69)"
     id="path146" />
  <path
     class="cls-11"
     d="M222.24,98q3.49,23,7,46"
     transform="translate(0 -4.69)"
     id="path148" />
  <path
     class="cls-11"
     d="M209.24,142c-2-2-9-3-11-1-2,3,1,3,4,3"
     transform="translate(0 -4.69)"
     id="path150" />
  <path
     class="cls-1"
     d="M478.28,209.38c30.24-54.26,45.23,94.61,3.53,55.32"
     transform="translate(0 -4.69)"
     id="path166" />
  <path
     class="cls-2"
     d="M473.8,255.67c5.37,2.8,12.76,5.63,18.51,6.32l-9.37,3.82-4.76,8.92C478.09,268.94,476,261.3,473.8,255.67Z"
     transform="translate(0 -4.69)"
     id="path168" />
  <line
     class="cls-3"
     x1="577.49"
     y1="21.36"
     x2="577.49"
     y2="229.8"
     id="line170" />
  <path
     class="cls-4"
     d="M577.49,15.5c-1.84,5-5,11.13-8.32,15l8.32-3,8.32,3C582.48,26.63,579.33,20.47,577.49,15.5Z"
     transform="translate(0 -4.69)"
     id="path172" />
  <line
     class="cls-5"
     x1="577.49"
     y1="229.8"
     x2="677.02"
     y2="130.27"
     id="line174" />
  <path
     class="cls-6"
     d="M684.49,127.5c-2.21,4.82-4.34,11.4-4.69,16.46L676,136l-8-3.76C673.09,131.84,679.67,129.71,684.49,127.5Z"
     transform="translate(0 -4.69)"
     id="path176" />
  <line
     class="cls-7"
     x1="577.49"
     y1="229.8"
     x2="422.05"
     y2="229.8"
     id="line178" />
  <path
     class="cls-8"
     d="M411.49,234.5c5-1.85,11.14-5,15-8.33l-3,8.33,3,8.32C422.63,239.49,416.46,236.34,411.49,234.5Z"
     transform="translate(0 -4.69)"
     id="path180" />
  <path
     class="cls-9"
     d="M558,21.07,567.3,6.6h-8.49V4.69h11.28V6L560.76,20.5h9.42v1.91H558Z"
     transform="translate(0 -4.69)"
     id="path182" />
  <path
     class="cls-6"
     d="M670.35,116.1l-4.82-8.56H668l2.41,4.53c.45.81.83,1.54,1.38,2.58h.11c.48-1,.82-1.77,1.25-2.58l2.35-4.53h2.38l-4.82,8.68,5.16,9h-2.49l-2.6-4.76c-.46-.89-.95-1.77-1.51-2.85h-.11c-.52,1.08-1,2-1.41,2.85l-2.56,4.76h-2.37Z"
     transform="translate(0 -4.69)"
     id="path184" />
  <path
     class="cls-10"
     d="M411.07,218.39l-5.32-10.85h2.41l2.28,5c.57,1.31,1.1,2.54,1.72,3.86h.11c.61-1.32,1.22-2.55,1.76-3.86l2.29-5h2.33l-5.32,10.85v6.86h-2.26Z"
     transform="translate(0 -4.69)"
     id="path186" />
  <path
     class="cls-1"
     d="M1049.46,215c-23.82,57.36-55.78-88.8-9.85-54.56"
     transform="translate(0 -4.69)"
     id="path198" />
  <path
     class="cls-2"
     d="M1048.6,168.52c-5.65-2.17-13.32-4.13-19.11-4.16l8.87-4.86,3.7-9.41C1042.82,155.83,1045.73,163.19,1048.6,168.52Z"
     transform="translate(0 -4.69)"
     id="path200" />
  <line
     class="cls-13"
     x1="983.24"
     y1="22.87"
     x2="983.24"
     y2="229.8"
     id="line202" />
  <path
     class="cls-4"
     d="M983.24,15.5c-2.11,5.68-5.7,12.72-9.51,17.09l9.51-3.44,9.51,3.44C988.94,28.22,985.35,21.18,983.24,15.5Z"
     transform="translate(0 -4.69)"
     id="path204" />
  <line
     class="cls-14"
     x1="983.24"
     y1="229.8"
     x2="1081.71"
     y2="131.34"
     id="line206" />
  <path
     class="cls-6"
     d="M1090.24,127.5c-2.52,5.5-5,13-5.36,18.81l-4.29-9.16-9.16-4.29C1077.21,132.46,1084.74,130,1090.24,127.5Z"
     transform="translate(0 -4.69)"
     id="path208" />
  <line
     class="cls-15"
     x1="983.24"
     y1="229.8"
     x2="829.31"
     y2="229.8"
     id="line210" />
  <path
     class="cls-8"
     d="M817.24,234.5c5.68-2.11,12.73-5.71,17.1-9.51l-3.44,9.51,3.44,9.51C830,240.2,822.92,236.6,817.24,234.5Z"
     transform="translate(0 -4.69)"
     id="path212" />
  <path
     class="cls-9"
     d="M963.72,21.07,973.05,6.6h-8.49V4.69h11.28V6L966.51,20.5h9.42v1.91H963.72Z"
     transform="translate(0 -4.69)"
     id="path214" />
  <path
     class="cls-6"
     d="M1076.1,116.1l-4.82-8.56h2.49l2.41,4.53c.45.81.83,1.54,1.38,2.58h.11c.48-1,.82-1.77,1.25-2.58l2.35-4.53h2.38l-4.82,8.68,5.16,9h-2.49l-2.6-4.76c-.46-.89-.94-1.77-1.51-2.85h-.11c-.52,1.08-1,2-1.41,2.85l-2.56,4.76h-2.37Z"
     transform="translate(0 -4.69)"
     id="path216" />
  <path
     class="cls-10"
     d="M816.82,218.39l-5.32-10.85h2.41l2.28,5c.57,1.31,1.1,2.54,1.72,3.86H818c.61-1.32,1.22-2.55,1.77-3.86l2.28-5h2.33l-5.32,10.85v6.86h-2.26Z"
     transform="translate(0 -4.69)"
     id="path218" />
  <text
     xml:space="preserve"
     style="font-style:normal;font-weight:normal;font-size:32px;line-height:1.25;font-family:sans-serif;fill:#808080;fill-opacity:1;stroke:none"
     x="86.135185"
     y="64.875748"
     id="text2438"><tspan
       sodipodi:role="line"
       id="tspan2436"
       x="86.135185"
       y="64.875748"
       style="font-size:32px;fill:#808080">Yaw</tspan></text>
  <text
     xml:space="preserve"
     style="font-style:normal;font-weight:normal;font-size:32px;line-height:1.25;font-family:sans-serif;fill:#808080;fill-opacity:1;stroke:none"
     x="455.37534"
     y="178.85187"
     id="text2438-6"><tspan
       sodipodi:role="line"
       id="tspan2436-9"
       x="455.37534"
       y="178.85187"
       style="font-size:32px;fill:#808080">Pitch</tspan></text>
  <text
     xml:space="preserve"
     style="font-style:normal;font-weight:normal;font-size:40px;line-height:1.25;font-family:sans-serif;fill:#000000;fill-opacity:1;stroke:none"
     x="1001.0512"
     y="105.44716"
     id="text24003"><tspan
       sodipodi:role="line"
       id="tspan24001"></tspan></text>
  <text
     xml:space="preserve"
     style="font-style:normal;font-weight:normal;font-size:32px;line-height:1.25;font-family:sans-serif;fill:#808080;fill-opacity:1;stroke:none"
     x="1000.0872"
     y="137.15616"
     id="text2438-7"><tspan
       sodipodi:role="line"
       id="tspan2436-6"
       x="1000.0872"
       y="137.15616"
       style="font-size:32px;fill:#808080">Roll</tspan></text>
</svg>
